<svg xmlns="http://www.w3.org/2000/svg" width="42" height="42" fill="none"><path fill="#3D3444" d="M20.683 20.683c-1.89 0-3.507-.673-4.852-2.018-1.345-1.345-2.018-2.963-2.018-4.852 0-1.89.672-3.507 2.018-4.852 1.345-1.345 2.963-2.018 4.852-2.018 1.889 0 3.506.673 4.852 2.018 1.345 1.345 2.018 2.963 2.018 4.852 0 1.89-.673 3.507-2.018 4.852-1.346 1.345-2.963 2.018-4.852 2.018Zm-10.305 13.74a3.306 3.306 0 0 1-2.425-1.008c-.674-.674-1.01-1.483-1.01-2.427v-1.374c0-.974.25-1.868.752-2.685a5.003 5.003 0 0 1 1.996-1.866 25.534 25.534 0 0 1 5.41-1.998 23.66 23.66 0 0 1 5.582-.665c1.889 0 3.75.222 5.582.665a25.535 25.535 0 0 1 5.41 1.997 5.004 5.004 0 0 1 1.995 1.867 5.03 5.03 0 0 1 .752 2.685v1.374c0 .944-.335 1.753-1.008 2.427a3.312 3.312 0 0 1-2.426 1.008h-20.61Z"/></svg>