<svg xmlns="http://www.w3.org/2000/svg" width="27" height="27" fill="none"><path fill="#3D3444" d="m24.392 26.578-8.59-8.604a9.138 9.138 0 0 1-2.647 1.46 9.34 9.34 0 0 1-3.183.537c-2.787 0-5.146-.966-7.076-2.898C.966 15.139 0 12.777 0 9.986c0-2.791.965-5.153 2.896-7.087C4.826.966 7.185 0 9.972 0s5.145.966 7.076 2.899c1.93 1.934 2.895 4.296 2.895 7.087 0 1.126-.179 2.189-.537 3.188a9.157 9.157 0 0 1-1.457 2.65l8.63 8.641c.28.282.421.628.421 1.037 0 .41-.153.768-.46 1.076-.281.281-.64.422-1.074.422-.435 0-.793-.14-1.074-.422Zm-14.42-9.679c1.917 0 3.547-.672 4.89-2.016 1.342-1.344 2.013-2.977 2.013-4.897 0-1.92-.67-3.553-2.013-4.898-1.343-1.344-2.973-2.015-4.89-2.015-1.918 0-3.548.671-4.891 2.015-1.342 1.345-2.013 2.977-2.013 4.898 0 1.92.671 3.553 2.013 4.897C6.424 16.227 8.054 16.9 9.97 16.9Z"/></svg>